<svg xmlns="http://www.w3.org/2000/svg" viewBox="0 0 960 540" role="img" aria-labelledby="title desc">
  <title id="title">Remote sensing fuels placeholder</title>
  <desc id="desc">A stylized satellite and landscape image for remote sensing research.</desc>
  <rect width="960" height="540" fill="#f7f8f3"/>
  <rect x="56" y="54" width="848" height="432" rx="28" fill="#ffffff" stroke="#d9ded5"/>
  <path d="M104 388c82-74 169-101 260-82 78 16 139 0 196-48 78-66 169-75 294-25v154H104Z" fill="#dce7df"/>
  <path d="M104 420h750" stroke="#275f4b" stroke-width="18" stroke-linecap="round"/>
  <g transform="translate(628 92) rotate(-16 92 64)">
    <rect x="0" y="0" width="184" height="128" rx="18" fill="#2f668c"/>
    <rect x="18" y="20" width="60" height="88" rx="8" fill="#ffffff" opacity=".85"/>
    <rect x="104" y="20" width="60" height="88" rx="8" fill="#ffffff" opacity=".85"/>
    <path d="M92 128v78" stroke="#2f668c" stroke-width="12" stroke-linecap="round"/>
  </g>
  <path d="M228 132h238v150H228z" fill="#edf1e9" stroke="#d9ded5"/>
  <path d="M246 252l54-56 42 34 72-78 34 100H246Z" fill="#66a061"/>
  <path d="M246 154h202" stroke="#d49d32" stroke-width="16"/>
  <circle cx="294" cy="188" r="22" fill="#be4b2f"/>
</svg>
